<svg width="146" height="52" viewBox="0 0 146 52" fill="none" xmlns="http://www.w3.org/2000/svg">
<path d="M0 28.5055H6.97688V0H0V28.5055Z" fill="#174997"/>
<path d="M12.0535 28.5055H18.9506V19.2163C18.9506 16.306 20.346 13.7544 23.4158 13.7544C24.9308 13.7544 25.6883 14.5518 25.6883 16.4654V28.5055H32.5855V15.1897C32.5855 9.40882 29.3562 7.49516 25.2099 7.49516C21.5819 7.49516 19.6284 9.44869 18.6716 11.0434H18.5918C18.5918 11.0434 18.6716 10.4454 18.6716 9.76763V7.97358H12.0535V28.5055Z" fill="#174997"/>
<path d="M38.3413 28.6062H42.2085V19.1974C42.2085 15.4498 44.4411 11.463 48.2684 11.463C51.3382 11.463 51.7369 13.895 51.7369 16.5262V28.6062H55.6041V19.1974C55.6041 15.3302 57.8367 11.463 61.5843 11.463C64.5744 11.463 65.1325 13.6956 65.1325 16.5262V28.6062H68.9997V15.689C68.9997 10.5461 66.9266 7.95464 62.3418 7.95464C59.0726 7.95464 56.2819 10.1872 55.1656 12.5394H55.0858C54.4081 9.50949 52.4545 7.95464 49.0658 7.95464C45.8763 7.95464 43.0059 10.3467 42.049 12.6989H41.9693C41.9693 12.6989 42.0889 12.0212 42.0889 11.1839V8.43305H38.3413V28.6062Z" fill="black"/>
<path d="M73.4674 18.5196C73.4674 24.4998 77.8529 29.0846 84.1919 29.0846C86.9826 29.0846 90.0525 28.0082 92.006 26.2141L90.3714 23.3835C88.7767 24.8188 86.5839 25.7357 84.4311 25.7357C80.8031 25.7357 77.6934 23.3835 77.4941 19.0379H92.1655C92.2452 18.4798 92.3249 17.9216 92.3249 17.4033C92.3249 12.2205 89.295 7.95464 83.5939 7.95464C77.8529 7.95464 73.4674 12.1009 73.4674 18.5196ZM77.6137 16.2472C78.1718 12.8983 80.524 10.9447 83.5141 10.9447C86.1454 10.9447 88.2983 12.7787 88.4179 16.2472H77.6137Z" fill="black"/>
<path d="M95.7392 18.5196C95.7392 24.7789 99.2077 29.0846 104.63 29.0846C107.819 29.0846 110.171 27.4102 111.328 25.2174H111.407C111.407 25.2174 111.288 25.7756 111.288 26.5729V28.6062H114.956V0.459473H111.128V9.90816C111.128 10.6657 111.208 11.2637 111.208 11.2637H111.128C109.852 9.11081 107.421 7.95464 104.869 7.95464C99.5267 7.95464 95.7392 12.1009 95.7392 18.5196ZM99.6862 18.5196C99.6862 13.9348 102.317 11.3434 105.467 11.3434C109.334 11.3434 111.208 14.8518 111.208 18.4798C111.208 23.5829 108.377 25.7357 105.387 25.7357C102.038 25.7357 99.6862 22.9051 99.6862 18.5196Z" fill="black"/>
<path d="M120.84 4.36653H124.826V0.459473H120.84V4.36653ZM120.919 28.6062H124.786V8.43305H120.919V28.6062Z" fill="black"/>
<path d="M129.056 23.1044C129.056 26.8919 132.285 29.0846 135.794 29.0846C138.784 29.0846 141.256 27.2906 142.412 24.9782H142.492C142.492 24.9782 142.372 25.656 142.372 26.5729V28.6062H146V15.8485C146 10.7454 143.09 7.95464 138.026 7.95464C135.196 7.95464 132.126 8.9912 130.491 10.3467L132.046 13.1773C133.681 12.0212 135.714 11.2238 137.707 11.2238C140.219 11.2238 142.133 12.3401 142.133 15.6491V16.0478H141.096C136.91 16.0478 129.056 16.7654 129.056 23.1044ZM132.923 22.7855C132.923 19.0778 138.266 18.8386 141.136 18.8386H142.133V19.5961C142.133 22.5862 140.099 26.0148 136.711 26.0148C134.199 26.0148 132.923 24.3802 132.923 22.7855Z" fill="black"/>
<path d="M0.0725098 47.7768H1.22937V42.3949H8.0532V47.7768H9.22683V35.9902H8.0532V41.3554H1.22937V35.9902H0.0725098V47.7768Z" fill="black"/>
<path d="M11.4104 45.5134C11.4104 47.1397 12.8355 47.978 14.2606 47.978C15.6187 47.978 16.6749 47.1062 17.1108 46.0835H17.1444C17.1444 46.0835 17.0941 46.3685 17.0941 46.7876V47.7768H18.1839V42.3781C18.1839 40.2656 17.0605 39.1423 15.0318 39.1423C13.9085 39.1423 12.7181 39.5279 12.0475 40.0979L12.5672 40.9698C13.2546 40.4668 14.1097 40.165 14.9648 40.165C16.1552 40.165 17.0438 40.7183 17.0438 42.3446V42.5793H16.5408C14.9312 42.5793 11.4104 42.747 11.4104 45.5134ZM12.5672 45.4128C12.5672 43.535 15.2498 43.4847 16.5576 43.4847H17.0438V43.8703C17.0438 45.3457 16.0881 47.0224 14.4618 47.0224C13.2043 47.0224 12.5672 46.2008 12.5672 45.4128Z" fill="black"/>
<path d="M20.8095 51.1301H21.9496V47.0391C21.9496 46.6032 21.8993 46.3014 21.8993 46.3014H21.9328C22.4861 47.3577 23.5256 47.978 24.716 47.978C26.9124 47.978 28.4884 46.2344 28.4884 43.5518C28.4884 40.953 27.0968 39.1423 24.8166 39.1423C23.5088 39.1423 22.4023 39.7961 21.8825 40.8859H21.849C21.849 40.8859 21.8993 40.6009 21.8993 40.2321V39.3435H20.8095V51.1301ZM21.9161 43.5853C21.9161 41.1877 23.2406 40.1818 24.6489 40.1818C26.225 40.1818 27.3315 41.5063 27.3315 43.5685C27.3315 45.7146 26.0908 46.9553 24.5986 46.9553C22.8717 46.9553 21.9161 45.2787 21.9161 43.5853Z" fill="black"/>
<path d="M29.8333 49.8894L29.3974 50.7947C29.3974 50.7947 30.0178 51.2977 30.8896 51.2977C32.0129 51.2977 32.868 50.6103 33.3039 49.5373L37.4619 39.3435H36.238L33.8069 45.4966C33.6393 45.9158 33.5219 46.3852 33.5219 46.3852H33.4884C33.4884 46.3852 33.3375 45.9158 33.1698 45.4966L30.7052 39.3435H29.4477L32.9518 47.693L32.4489 48.9002C32.1135 49.6714 31.577 50.275 30.8393 50.275C30.3028 50.275 29.8333 49.8894 29.8333 49.8894Z" fill="black"/>
<path d="M38.2393 47.7768H39.5639L42.0453 43.9709H43.3865V47.7768H44.4931V43.9709H45.8512L48.3158 47.7768H49.6571L46.8068 43.4679V43.4344L49.3888 39.3435H48.1314L45.8512 42.965H44.4931V39.3435H43.3865V42.965H42.0285L39.7483 39.3435H38.5076L41.0896 43.4344V43.4679L38.2393 47.7768Z" fill="black"/>
<path d="M51.3455 47.7768H52.4856V43.9542H57.4148V47.7768H58.5549V39.3435H57.4148V42.9482H52.4856V39.3435H51.3455V47.7768Z" fill="black"/>
<path d="M60.5299 45.5134C60.5299 47.1397 61.9551 47.978 63.3802 47.978C64.7382 47.978 65.7945 47.1062 66.2304 46.0835H66.264C66.264 46.0835 66.2137 46.3685 66.2137 46.7876V47.7768H67.3035V42.3781C67.3035 40.2656 66.1801 39.1423 64.1514 39.1423C63.0281 39.1423 61.8377 39.5279 61.167 40.0979L61.6868 40.9698C62.3742 40.4668 63.2293 40.165 64.0844 40.165C65.2748 40.165 66.1634 40.7183 66.1634 42.3446V42.5793H65.6604C64.0508 42.5793 60.5299 42.747 60.5299 45.5134ZM61.6868 45.4128C61.6868 43.535 64.3694 43.4847 65.6771 43.4847H66.1634V43.8703C66.1634 45.3457 65.2077 47.0224 63.5814 47.0224C62.3239 47.0224 61.6868 46.2008 61.6868 45.4128Z" fill="black"/>
<path d="M69.074 47.7768H70.3985L72.6116 44.541H74.3553V47.7768H75.4954V39.3435H72.5278C70.7841 39.3435 69.5434 40.2153 69.5434 41.9087C69.5434 43.2835 70.4991 44.1386 71.4883 44.3398V44.3733C71.4883 44.3733 71.2704 44.608 71.1027 44.8763L69.074 47.7768ZM72.6619 43.6524C71.5722 43.6524 70.7171 43.0488 70.7171 41.9087C70.7171 40.7015 71.4883 40.2153 72.7458 40.2153H74.3553V43.6524H72.6619Z" fill="black"/>
<path d="M82.4218 51.1301H83.5619V47.0391C83.5619 46.6032 83.5116 46.3014 83.5116 46.3014H83.5451C84.0984 47.3577 85.1379 47.978 86.3283 47.978C88.5247 47.978 90.1007 46.2344 90.1007 43.5518C90.1007 40.953 88.7091 39.1423 86.4289 39.1423C85.1212 39.1423 84.0146 39.7961 83.4948 40.8859H83.4613C83.4613 40.8859 83.5116 40.6009 83.5116 40.2321V39.3435H82.4218V51.1301ZM83.5284 43.5853C83.5284 41.1877 84.8529 40.1818 86.2613 40.1818C87.8373 40.1818 88.9438 41.5063 88.9438 43.5685C88.9438 45.7146 87.7031 46.9553 86.211 46.9553C84.484 46.9553 83.5284 45.2787 83.5284 43.5853Z" fill="black"/>
<path d="M91.7248 43.5685C91.7248 46.1673 93.6361 47.978 96.1511 47.978C97.2576 47.978 98.4816 47.5253 99.2696 46.8044L98.7498 45.9326C98.0624 46.5529 97.1067 46.9385 96.1846 46.9385C94.4409 46.9385 92.9655 45.7481 92.9152 43.6021H99.3869C99.4037 43.4176 99.4205 43.2164 99.4205 43.032C99.4205 40.9362 98.2301 39.1423 95.8996 39.1423C93.6194 39.1423 91.7248 40.8021 91.7248 43.5685ZM92.9655 42.6967C93.2337 41.0033 94.4577 40.0812 95.866 40.0812C97.1235 40.0812 98.1965 40.9362 98.2636 42.6967H92.9655Z" fill="black"/>
<path d="M101.562 47.7768H102.702V43.9206H104.06L106.86 47.7768H108.252L104.982 43.3841V43.3506L107.916 39.3435H106.575L104.043 42.9147H102.702V39.3435H101.562V47.7768Z" fill="black"/>
<path d="M108.841 47.8439C111.003 47.6762 111.959 45.8823 111.959 41.8919V40.3327H114.876V47.7768H116.016V39.3435H110.852V41.8919C110.852 45.0104 110.249 46.6032 108.841 46.8212V47.8439Z" fill="black"/>
<path d="M118.016 45.5134C118.016 47.1397 119.441 47.978 120.866 47.978C122.225 47.978 123.281 47.1062 123.717 46.0835H123.75C123.75 46.0835 123.7 46.3685 123.7 46.7876V47.7768H124.79V42.3781C124.79 40.2656 123.666 39.1423 121.638 39.1423C120.514 39.1423 119.324 39.5279 118.653 40.0979L119.173 40.9698C119.86 40.4668 120.716 40.165 121.571 40.165C122.761 40.165 123.65 40.7183 123.65 42.3446V42.5793H123.147C121.537 42.5793 118.016 42.747 118.016 45.5134ZM119.173 45.4128C119.173 43.535 121.856 43.4847 123.163 43.4847H123.65V43.8703C123.65 45.3457 122.694 47.0224 121.068 47.0224C119.81 47.0224 119.173 46.2008 119.173 45.4128Z" fill="black"/>
<path d="M127.097 47.7768H128.203L128.622 42.3278C128.656 41.8752 128.622 40.8692 128.622 40.8692H128.656C128.656 40.8692 128.891 41.4728 129.209 42.1266L131.54 46.8044H132.579L134.927 42.0931C135.279 41.4057 135.463 40.8692 135.463 40.8692H135.497C135.497 40.8692 135.48 41.8752 135.497 42.3278L135.916 47.7768H137.039L136.335 39.3435H135.145L132.596 44.541C132.345 45.0775 132.076 45.7314 132.076 45.7314H132.043C132.043 45.7314 131.758 45.0607 131.523 44.541L128.991 39.3435H127.784L127.097 47.7768Z" fill="black"/>
<path d="M138.696 45.5134C138.696 47.1397 140.121 47.978 141.546 47.978C142.904 47.978 143.96 47.1062 144.396 46.0835H144.43C144.43 46.0835 144.379 46.3685 144.379 46.7876V47.7768H145.469V42.3781C145.469 40.2656 144.346 39.1423 142.317 39.1423C141.194 39.1423 140.003 39.5279 139.333 40.0979L139.852 40.9698C140.54 40.4668 141.395 40.165 142.25 40.165C143.44 40.165 144.329 40.7183 144.329 42.3446V42.5793H143.826C142.216 42.5793 138.696 42.747 138.696 45.5134ZM139.852 45.4128C139.852 43.535 142.535 43.4847 143.843 43.4847H144.329V43.8703C144.329 45.3457 143.373 47.0224 141.747 47.0224C140.49 47.0224 139.852 46.2008 139.852 45.4128Z" fill="black"/>
</svg>
