<svg width="45" height="43" viewBox="0 0 45 43" fill="none" xmlns="http://www.w3.org/2000/svg">
<path d="M18.8165 25.1341V26.9529C18.8165 29.0104 20.4912 30.6364 22.5001 30.6364C24.5105 30.6364 26.1836 28.9634 26.1836 26.9529V25.1341C26.1836 23.0766 24.5089 21.4506 22.5001 21.4506C20.4896 21.4506 18.8165 23.1237 18.8165 25.1341ZM24.455 25.1341V26.9529C24.455 28.0345 23.5817 28.9078 22.5001 28.9078C21.4185 28.9078 20.5451 28.0345 20.5451 26.9529V25.1341C20.5451 24.0525 21.4185 23.1792 22.5001 23.1792C23.5817 23.1792 24.455 24.0525 24.455 25.1341Z" fill="#0651BD" stroke="#0651BD" stroke-width="0.364474"/>
<path d="M22.8185 31.1359H22.2273C19.1508 31.1359 16.725 33.9219 16.725 37.3203V41.0035C16.725 41.4679 17.1249 41.8678 17.5893 41.8678C18.0537 41.8678 18.4536 41.4679 18.4536 41.0035V37.3203C18.4536 34.846 20.1718 32.8645 22.2273 32.8645H22.8185C24.874 32.8645 26.5922 34.846 26.5922 37.3203V41.0035C26.5922 41.4679 26.9921 41.8678 27.4565 41.8678C27.9209 41.8678 28.3208 41.4679 28.3208 41.0035V37.3203C28.3208 33.9208 25.8486 31.1359 22.8185 31.1359Z" fill="#0651BD" stroke="#0651BD" stroke-width="0.364474"/>
<path d="M43.439 19.0081L43.4299 19.0044L43.4204 19.0018L39.2576 17.838L36.8851 14.2121L36.8854 14.2119L36.8784 14.2025C36.5327 13.7416 35.7957 13.7416 35.45 14.2025L35.4497 14.2023L35.4433 14.2121L33.071 17.8377L28.8689 19C28.5782 19.061 28.3464 19.2903 28.2817 19.5797C28.1726 19.8678 28.2345 20.1622 28.4565 20.3895L31.1367 23.7843L30.9576 28.1276L30.9574 28.1276V28.1351C30.9574 28.4069 31.0659 28.6941 31.3031 28.872C31.5297 29.042 31.8228 29.1032 32.115 28.9871L36.1415 27.466L40.1612 28.9845C40.215 29.0107 40.2642 29.0278 40.3176 29.0367C40.3669 29.0449 40.4145 29.0449 40.4551 29.0449L40.4612 29.0449C40.6403 29.0449 40.8113 28.9847 40.9715 28.8779L40.9717 28.8781L40.9798 28.872C41.217 28.6941 41.3255 28.4069 41.3255 28.1351H41.3257L41.3254 28.1276L41.1463 23.7843L43.8264 20.3895C44.0523 20.1581 44.1125 19.8573 43.9953 19.5643C43.8858 19.2907 43.7127 19.1176 43.439 19.0081ZM39.595 22.9241L39.588 22.9323L39.582 22.9413C39.4718 23.1066 39.415 23.2781 39.415 23.4971H39.4148L39.4153 23.5063L39.5831 26.8202L36.487 25.6487C36.4332 25.6225 36.384 25.6054 36.3306 25.5965C36.2813 25.5883 36.2337 25.5883 36.1931 25.5884L36.1869 25.5884L36.1817 25.5884C36.14 25.5884 36.0833 25.5883 36.0304 25.5959C35.9873 25.602 35.9245 25.6159 35.8677 25.6561L32.6999 26.8648L32.8677 23.5517L32.8679 23.5517V23.5425C32.8679 23.3235 32.8111 23.1521 32.7009 22.9867L32.6963 22.9798L32.6911 22.9734L30.5925 20.3711L33.8249 19.4895L33.825 19.4898L33.8346 19.4866C33.9814 19.4377 34.2122 19.3304 34.3378 19.142L36.1869 16.3683L38.036 19.142C38.1554 19.321 38.3325 19.435 38.5507 19.49L41.7732 20.3689L39.595 22.9241Z" fill="#0651BD" stroke="#0651BD" stroke-width="0.364474"/>
<path d="M9.60236 14.2121L9.60268 14.2119L9.59566 14.2025C9.24994 13.7416 8.51303 13.7416 8.1673 14.2025L8.167 14.2023L8.1606 14.2121L5.78828 17.8377L1.58618 19C1.29546 19.061 1.06366 19.2903 0.998941 19.5797C0.889882 19.8678 0.951833 20.1622 1.17378 20.3895L3.85395 23.7843L3.67485 28.1276L3.67469 28.1276V28.1351C3.67469 28.4069 3.78322 28.6941 4.02041 28.872C4.247 29.042 4.54011 29.1032 4.83228 28.9871L8.85875 27.466L12.8785 28.9845C12.9323 29.0107 12.9815 29.0278 13.0349 29.0367C13.0841 29.0449 13.1318 29.0449 13.1724 29.0449L13.1785 29.0449C13.3576 29.0449 13.5286 28.9847 13.6888 28.8779L13.689 28.8781L13.6971 28.872C13.9343 28.6941 14.0428 28.4069 14.0428 28.1351H14.043L14.0426 28.1276L13.8635 23.7843L16.55 20.3815L16.55 20.3816L16.5527 20.3779C16.7227 20.1513 16.7769 19.8703 16.7221 19.5963C16.6626 19.2992 16.4277 19.0623 16.1316 19.0001L11.9748 17.838L9.60236 14.2121ZM12.3123 22.9241L12.3053 22.9323L12.2993 22.9413C12.1891 23.1066 12.1323 23.2781 12.1323 23.4971H12.1321L12.1325 23.5063L12.3003 26.8202L9.20428 25.6487C9.15044 25.6225 9.10126 25.6054 9.04785 25.5965C8.99858 25.5883 8.95095 25.5883 8.91037 25.5884L8.90422 25.5884L8.89894 25.5884C8.85725 25.5884 8.80057 25.5883 8.74772 25.5959C8.70461 25.602 8.64182 25.6159 8.58495 25.6561L5.4172 26.8648L5.58495 23.5517L5.58518 23.5517V23.5425C5.58518 23.3235 5.52842 23.1521 5.41816 22.9867L5.41358 22.9798L5.40839 22.9734L3.30975 20.3711L6.5422 19.4895L6.54227 19.4898L6.55188 19.4866C6.69867 19.4377 6.92949 19.3304 7.05512 19.142L8.90422 16.3683L10.7533 19.142C10.8727 19.321 11.0498 19.435 11.268 19.49L14.4905 20.3689L12.3123 22.9241Z" fill="#0651BD" stroke="#0651BD" stroke-width="0.364474"/>
<path d="M17.3162 14.4865L17.316 14.4865V14.494C17.316 14.7658 17.4246 15.053 17.6618 15.2309C17.8884 15.4008 18.1815 15.4621 18.4737 15.3459L22.5001 13.8248L26.5198 15.3434C26.5737 15.3696 26.6228 15.3867 26.6762 15.3956C26.7255 15.4038 26.7731 15.4038 26.8137 15.4038L26.8199 15.4038C26.999 15.4038 27.17 15.3436 27.3302 15.2367L27.3303 15.237L27.3384 15.2309C27.5756 15.053 27.6842 14.7658 27.6842 14.494H27.6843L27.684 14.4865L27.5049 10.1432L30.1913 6.74041L30.1914 6.74045L30.1941 6.73683C30.3641 6.51021 30.4182 6.22922 30.3634 5.95515L30.3601 5.93875L30.3539 5.92321C30.2445 5.64955 30.0714 5.47644 29.7977 5.36698L29.7886 5.36333L29.7791 5.36068L25.6162 4.19686L23.2437 0.570996L23.244 0.570791L23.237 0.561434C22.8913 0.100472 22.1544 0.100472 21.8087 0.561434L21.8084 0.561209L21.802 0.570996L19.4296 4.19662L15.2275 5.3589C14.9368 5.4199 14.705 5.6492 14.6403 5.9386C14.5312 6.22673 14.5932 6.52105 14.8151 6.74835L17.4953 10.1432L17.3162 14.4865ZM20.1857 5.80235L20.1857 5.80252L20.1932 5.80001C20.34 5.75108 20.5708 5.64384 20.6965 5.45538L20.6965 5.4554L20.6982 5.45273L22.503 2.64062L24.3492 5.40991C24.4686 5.58894 24.6457 5.70299 24.8639 5.75796L28.0946 6.63905L25.9959 9.24135L25.9907 9.24779L25.9862 9.25467C25.8759 9.42006 25.8191 9.59147 25.8191 9.81046H25.8189L25.8194 9.81968L25.9872 13.1336L22.8911 11.9622C22.8373 11.936 22.7881 11.9188 22.7347 11.9099C22.6854 11.9017 22.6378 11.9018 22.5972 11.9018L22.591 11.9018L22.5858 11.9018C22.5441 11.9018 22.4874 11.9017 22.4345 11.9093C22.3913 11.9155 22.3282 11.9294 22.2711 11.97L19.0587 13.2216L19.2263 9.91062L19.2265 9.91063V9.90141C19.2265 9.68241 19.1698 9.511 19.0595 9.34561L19.0549 9.33873L19.0497 9.3323L16.9488 6.72716L20.1857 5.80235Z" fill="#0651BD" stroke="#0651BD" stroke-width="0.364474"/>
</svg>
