<svg width="21" height="21" viewBox="0 0 21 21" fill="none" xmlns="http://www.w3.org/2000/svg">
<path d="M5.53482 0C5.31134 0 5.10443 0.0361921 4.92092 0.107452C3.47737 0.667696 2.18901 1.50617 1.08901 2.60327C0.793296 2.90099 0.509263 3.225 0.217424 3.59392L0.013486 3.85057L0.00364975 4.17661C-0.0929951 8.26432 1.7332 12.5004 5.06731 15.8601L5.13366 15.9303C8.35554 19.1514 12.5056 20.9992 16.5201 21L16.522 20.9981L17.1506 20.9864L17.4063 20.7873C17.7606 20.5111 18.0943 20.2163 18.4028 19.9098C19.4969 18.8137 20.3363 17.5252 20.8926 16.0856C21.2225 15.2452 20.754 13.907 20.0122 13.5722C18.4115 12.846 17.1632 12.4439 15.0696 11.9763C14.9593 11.9519 14.8393 11.9392 14.7036 11.9392C14.5758 11.9392 13.4299 11.9608 12.976 12.6753L12.0058 14.2047C12.0019 14.2053 12 14.2047 11.9903 14.2047C11.9463 14.2096 11.7627 14.1989 11.5344 14.0309C10.6931 13.419 9.88687 12.7319 9.08261 11.9403C8.29006 11.135 7.58051 10.3024 6.97241 9.46787C6.82309 9.26486 6.79086 9.08231 6.80064 8.9984L8.32425 8.03211C9.01822 7.58997 9.15 6.39129 9.01825 5.89844C8.56828 4.19909 7.95038 2.42175 7.45848 1.05909C7.16664 0.259746 6.03641 3.1227e-05 5.53473 3.1227e-05L5.53482 0ZM5.55821 1.95412C5.60608 1.95899 5.66276 1.97167 5.71447 1.98825C6.17418 3.27081 6.72563 4.87157 7.11212 6.30932C7.11399 6.35329 7.10144 6.43423 7.08579 6.50352L5.69592 7.38593C5.27427 7.64556 4.98637 8.07699 4.88389 8.59723C4.75502 9.26286 4.93944 10.0008 5.39137 10.6186C6.05602 11.5303 6.82809 12.436 7.69776 13.3223C8.57225 14.1812 9.47609 14.9514 10.3799 15.6083C11.476 16.4096 13.0318 16.2524 13.6116 15.3144L14.4958 13.9177C14.5563 13.9031 14.6188 13.8923 14.6383 13.8826C16.4938 14.2964 17.6279 14.6527 18.9982 15.2599C19.0217 15.3223 19.0441 15.3925 19.0441 15.4433C18.5854 16.6067 17.9041 17.6463 17.0218 18.5306C16.8441 18.7063 16.6538 18.8791 16.4538 19.0469C12.9732 19.0264 9.35506 17.3895 6.53918 14.5756L6.44547 14.48C3.63937 11.6699 1.97723 7.98228 1.95381 4.55046C2.12459 4.34352 2.2964 4.15616 2.4682 3.98338C3.35637 3.09809 4.39579 2.41581 5.55821 1.95412Z" fill="#174997"/>
</svg>
