<svg width="30" height="30" viewBox="0 0 30 30" fill="none" xmlns="http://www.w3.org/2000/svg">
<path d="M26.875 0H18.9462C17.4437 0 16.0312 0.585 14.9687 1.64748L1.06623 15.55C0.37875 16.2375 0 17.1513 0 18.1275C0 19.0988 0.37875 20.0125 1.06623 20.7L9.3 28.9338C9.98748 29.6213 10.9012 30 11.8775 30C12.8487 30 13.7625 29.6213 14.45 28.9338L28.3525 15.0313C29.415 13.9688 30 12.5562 30 11.0538V3.12498C30 1.4025 28.5975 0 26.875 0ZM28.75 11.0538C28.75 12.2225 28.295 13.3213 27.47 14.1463L13.5663 28.05C12.6675 28.9488 11.0913 28.955 10.185 28.05L1.95 19.815C1.49877 19.365 1.24998 18.765 1.24998 18.1225C1.24998 17.485 1.49871 16.885 1.95 16.4338L15.8525 2.53125C16.68 1.70502 17.7775 1.24998 18.9462 1.24998H26.875C27.9087 1.24998 28.75 2.09121 28.75 3.12498V11.0538H28.75Z" fill="#174997"/>
<path d="M23.125 3.75C21.4025 3.75 20 5.1525 20 6.87498C20 8.59746 21.4025 9.99996 23.125 9.99996C24.8475 9.99996 26.25 8.59752 26.25 6.87498C26.25 5.1525 24.8475 3.75 23.125 3.75ZM23.125 8.74998C22.0912 8.74998 21.25 7.90875 21.25 6.87498C21.25 5.84121 22.0912 4.99998 23.125 4.99998C24.1587 4.99998 25 5.84121 25 6.87498C25 7.90875 24.1587 8.74998 23.125 8.74998Z" fill="#174997"/>
</svg>
