<svg width="28" height="32" viewBox="0 0 28 32" fill="none" xmlns="http://www.w3.org/2000/svg">
<path d="M8.59828 16.037L8.52531 15.9606L8.45302 16.0377L7.86041 16.6693L7.79569 16.7383L7.86096 16.8067L12.2053 21.3631L12.2774 21.4388L12.3498 21.3633L22.7388 10.534L22.804 10.4661L22.7401 10.3969L22.1475 9.75566L22.0754 9.67766L22.0019 9.7543L12.2778 19.891L8.59828 16.037ZM14.3131 1.11374L14.3129 1.11358L14.0608 0.920597L14 0.874059L13.9392 0.920598L13.6871 1.11358L13.6869 1.11374C10.8972 3.26098 7.81858 4.72605 5.42743 5.65619C4.23219 6.12113 3.20952 6.45209 2.48175 6.66761C2.11788 6.77536 1.82779 6.85424 1.62677 6.90656C1.52625 6.93272 1.44803 6.95223 1.39401 6.96539C1.367 6.97198 1.34606 6.97696 1.33144 6.98039L1.31439 6.98434C1.30988 6.98537 1.30833 6.9857 1.3086 6.98565L1.30859 6.98563L1.30677 6.98604L0.978167 7.05956L0.9 7.07705V7.15715V7.50176V7.50716C0.9 11.0614 0.899999 16.5552 2.52408 21.3592C3.33702 23.7639 4.55844 26.0009 6.3948 27.7364C8.23234 29.4731 10.6807 30.7028 13.9384 31.0993L13.9383 31.1H13.9505H14.0495V31.1007L14.0616 31.0993C17.3193 30.7028 19.7676 29.4736 21.6052 27.7377C23.4416 26.0029 24.663 23.7668 25.4759 21.3627C27.1 16.5598 27.1 11.066 27.1 7.50717V7.50176V7.15715V7.07705L27.0218 7.05956L26.6932 6.98604L26.6932 6.98602L26.6914 6.98565L26.6912 6.9856C26.6906 6.98547 26.6889 6.98509 26.6856 6.98434L26.6686 6.98039C26.661 6.97861 26.6517 6.97642 26.6408 6.9738C26.6306 6.97137 26.619 6.96857 26.606 6.96539C26.552 6.95223 26.4737 6.93272 26.3732 6.90656C26.1722 6.85424 25.8821 6.77536 25.5183 6.66761C24.7905 6.45209 23.7678 6.12113 22.5726 5.65619C20.1814 4.72605 17.1028 3.26098 14.3131 1.11374ZM3.52414 21.1929C2.00037 16.7845 1.94693 11.6392 1.94627 7.9142C3.47984 7.50649 9.12903 5.84922 14.0002 2.19106C18.9013 5.84888 24.5289 7.50621 26.0537 7.91408C26.0531 11.6391 25.9997 16.7845 24.4759 21.1934C23.7092 23.4116 22.572 25.4384 20.8862 27.0032C19.2072 28.5616 16.9792 29.6665 14.0183 30.0423L14.0124 30.0415C11.0361 29.6706 8.79852 28.5644 7.1138 27.0012C5.428 25.4371 4.29075 23.4107 3.52414 21.1929Z" fill="#174997" stroke="#174997" stroke-width="0.2"/>
</svg>
