<svg width="30" height="30" viewBox="0 0 30 30" fill="none" xmlns="http://www.w3.org/2000/svg">
<path d="M18.0024 30H11.9966L11.8685 29.163C11.8638 29.1363 11.717 28.1729 11.5275 26.7919C10.6999 26.5415 9.90069 26.1998 9.14398 25.7741C8.19501 26.493 7.49014 27.014 7.21594 27.2156L6.51608 27.7282L2.27112 23.4849L2.77102 22.8024C2.77269 22.8001 3.3846 21.9648 4.32488 20.7259C3.96743 20.0164 3.6822 19.2731 3.47355 18.5083C1.94543 18.3 0.856015 18.1348 0.825252 18.1291L0 18.0027V11.9989L0.835953 11.8699C1.16565 11.8197 2.24871 11.6569 3.70561 11.4596C3.93065 10.8075 4.21387 10.1739 4.54959 9.56898C3.49462 8.18297 2.77369 7.20056 2.76868 7.19387L2.27112 6.51608L6.51709 2.27078L7.19922 2.77168C7.20357 2.77469 8.24885 3.5421 9.70173 4.65091C10.2568 4.37604 10.8343 4.14398 11.4255 3.95874C11.6729 2.11529 11.8685 0.840968 11.8699 0.831606L11.9966 0H18.0024L18.1308 0.836287C18.1308 0.836287 18.3251 2.0959 18.5745 3.9584C19.1657 4.14365 19.7429 4.37571 20.2979 4.65057C21.5606 3.68655 22.5132 2.98301 22.7874 2.78105L23.4826 2.27112L27.7289 6.51642L27.2276 7.19856C27.223 7.20558 26.5111 8.17562 25.4504 9.56898C25.7868 10.1739 26.0697 10.8075 26.2944 11.4599C27.8192 11.6662 28.933 11.8351 29.1523 11.8685L29.9993 11.9993V18.0037L29.1624 18.1318C29.1503 18.1345 28.0663 18.299 26.5248 18.509C26.3165 19.2737 26.0312 20.0171 25.6738 20.7263C26.596 21.9404 27.224 22.7958 27.2427 22.8245L27.7279 23.4856L23.4832 27.7282L22.766 27.2032C22.6042 27.0839 21.8755 26.5468 20.855 25.7741C20.0983 26.1998 19.2998 26.5415 18.4722 26.7923C18.2746 28.2278 18.1308 29.164 18.1298 29.1697L18.0024 30ZM12.8583 28.9969H17.142C17.1624 28.8634 17.3206 27.8205 17.5232 26.3328L17.568 26.0041L17.8884 25.9165C18.8504 25.6544 19.7743 25.2588 20.6343 24.7422L20.9256 24.567L21.1964 24.7726C22.3487 25.6487 23.187 26.2666 23.3622 26.3957L23.3829 26.4111L26.4118 23.3839C26.3148 23.2505 25.6326 22.3239 24.6847 21.0804L24.4887 20.8229L24.6422 20.5384C25.0843 19.7171 25.419 18.843 25.637 17.9392L25.7172 17.6055L26.0576 17.5597C27.7185 17.3357 28.8815 17.1598 28.9979 17.1417V12.8593C28.7243 12.8175 27.4951 12.6319 25.8513 12.4122L25.5353 12.3701L25.4397 12.0658C25.1899 11.2717 24.8469 10.5049 24.4198 9.78633L24.247 9.49508L24.4523 9.22591C25.5822 7.74661 26.3422 6.7117 26.4118 6.61707L23.3833 3.58925C23.0656 3.82298 22.0197 4.5964 20.6574 5.64001L20.4019 5.83562L20.1174 5.68481C19.4399 5.32569 18.722 5.03779 17.9847 4.82913L17.6674 4.73918L17.6239 4.41216C17.3714 2.50585 17.1628 1.13623 17.1427 1.00314H12.8583C12.8342 1.1603 12.6266 2.53093 12.3768 4.41249L12.3336 4.73952L12.0163 4.82947C11.2783 5.03845 10.5608 5.32636 9.8833 5.68515L9.59908 5.83562L9.34361 5.64001C7.84893 4.49575 6.7341 3.67485 6.6174 3.58925L3.58958 6.61707C3.67986 6.74012 4.44994 7.78673 5.54905 9.22591L5.7547 9.49508L5.58182 9.78633C5.15515 10.5056 4.81208 11.2727 4.56196 12.0665L4.46599 12.3704L4.15 12.4126C2.54531 12.6272 1.33752 12.8088 1.00548 12.8593L1.00314 12.8596V17.1427C1.14392 17.1638 2.29519 17.3383 3.94269 17.5604L4.28275 17.6062L4.36334 17.9399C4.58135 18.8434 4.9164 19.7178 5.35879 20.539L5.51194 20.8236L5.31632 21.0811C4.34093 22.3621 3.66582 23.2799 3.58925 23.3846L6.61774 26.4118C6.93974 26.1747 7.74059 25.5828 8.80425 24.774L9.0751 24.5683L9.36668 24.7435C10.2264 25.2605 11.1503 25.6554 12.113 25.9175L12.4333 26.0048L12.4781 26.3338C12.6807 27.8309 12.8399 28.8785 12.8583 28.9969Z" fill="#174997"/>
<path d="M14.9718 19.8376C12.3202 19.8376 10.1631 17.6798 10.1631 15.0275C10.1631 12.3758 12.3205 10.2188 14.9718 10.2188C17.6231 10.2188 19.7809 12.3762 19.7809 15.0275C19.7809 17.6798 17.6231 19.8376 14.9718 19.8376ZM14.9718 11.2219C12.8732 11.2219 11.1662 12.9289 11.1662 15.0275C11.1662 17.1264 12.8732 18.8344 14.9718 18.8344C17.0704 18.8344 18.7777 17.1267 18.7777 15.0275C18.7777 12.9292 17.0704 11.2219 14.9718 11.2219Z" fill="#174997"/>
</svg>
