<svg width="175" height="62" viewBox="0 0 175 62" fill="none" xmlns="http://www.w3.org/2000/svg">
<path d="M0 34.1676H8.3627V0H0V34.1676Z" fill="#174997"/>
<path d="M14.4477 34.1676H22.7148V23.0333C22.7148 19.5448 24.3874 16.4865 28.0669 16.4865C29.8828 16.4865 30.7908 17.4422 30.7908 19.736V34.1676H39.0579V18.2068C39.0579 11.2777 35.1872 8.98393 30.2173 8.98393C25.8687 8.98393 23.5272 11.3255 22.3803 13.237H22.2847C22.2847 13.237 22.3803 12.5202 22.3803 11.7078V9.55737H14.4477V34.1676Z" fill="#174997"/>
<path d="M45.9573 34.2883H50.5926V23.0106C50.5926 18.5186 53.2687 13.74 57.8562 13.74C61.5358 13.74 62.0137 16.655 62.0137 19.8089V34.2883H66.649V23.0106C66.649 18.3753 69.3251 13.74 73.817 13.74C77.401 13.74 78.07 16.416 78.07 19.8089V34.2883H82.7054V18.8054C82.7054 12.6409 80.2205 9.53471 74.725 9.53471C70.8064 9.53471 67.4614 12.2108 66.1233 15.0302H66.0278C65.2154 11.3984 62.8738 9.53471 58.8119 9.53471C54.989 9.53471 51.5483 12.4019 50.4015 15.2213H50.3059C50.3059 15.2213 50.4492 14.409 50.4492 13.4054V10.1082H45.9573V34.2883Z" fill="white"/>
<path d="M88.0605 22.1982C88.0605 29.3663 93.317 34.8617 100.915 34.8617C104.26 34.8617 107.94 33.5715 110.281 31.4211L108.322 28.0282C106.411 29.7486 103.782 30.8477 101.202 30.8477C96.8533 30.8477 93.1259 28.0282 92.887 22.8195H110.473C110.568 22.1504 110.664 21.4814 110.664 20.8602C110.664 14.6479 107.032 9.53471 100.198 9.53471C93.317 9.53471 88.0605 14.5045 88.0605 22.1982ZM93.0303 19.4744C93.6993 15.4603 96.5188 13.1187 100.103 13.1187C103.257 13.1187 105.837 15.3169 105.981 19.4744H93.0303Z" fill="white"/>
<path d="M114.756 22.1982C114.756 29.7008 118.914 34.8617 125.413 34.8617C129.236 34.8617 132.055 32.8547 133.441 30.2264H133.536C133.536 30.2264 133.393 30.8954 133.393 31.8512V34.2883H137.789V0.550781H133.202V11.8763C133.202 12.7842 133.297 13.501 133.297 13.501H133.202C131.673 10.9205 128.758 9.53471 125.699 9.53471C119.296 9.53471 114.756 14.5045 114.756 22.1982ZM119.487 22.1982C119.487 16.7027 122.641 13.5966 126.416 13.5966C131.051 13.5966 133.297 17.8018 133.297 22.1504C133.297 28.2672 129.905 30.8477 126.321 30.8477C122.306 30.8477 119.487 27.4548 119.487 22.1982Z" fill="white"/>
<path d="M144.842 5.23389H149.621V0.550781H144.842V5.23389ZM144.938 34.2883H149.573V10.1082H144.938V34.2883Z" fill="white"/>
<path d="M154.691 27.6937C154.691 32.2335 158.561 34.8617 162.767 34.8617C166.351 34.8617 169.313 32.7113 170.699 29.9397H170.795C170.795 29.9397 170.651 30.7521 170.651 31.8512V34.2883H175V18.9965C175 12.8798 171.512 9.53471 165.443 9.53471C162.05 9.53471 158.37 10.7772 156.411 12.4019L158.275 15.7948C160.234 14.409 162.671 13.4532 165.06 13.4532C168.071 13.4532 170.365 14.7913 170.365 18.7576V19.2354H169.122C164.105 19.2354 154.691 20.0956 154.691 27.6937ZM159.326 27.3114C159.326 22.8672 165.729 22.5805 169.17 22.5805H170.365V23.4885C170.365 27.0725 167.928 31.1822 163.866 31.1822C160.855 31.1822 159.326 29.2229 159.326 27.3114Z" fill="white"/>
<path d="M0.0871582 57.2669H1.47381V50.816H9.65305V57.2669H11.0598V43.1392H9.65305V49.57H1.47381V43.1392H0.0871582V57.2669Z" fill="white"/>
<path d="M13.677 54.5539C13.677 56.5033 15.3852 57.5081 17.0934 57.5081C18.7212 57.5081 19.9873 56.4631 20.5098 55.2372H20.55C20.55 55.2372 20.4897 55.5788 20.4897 56.0812V57.2669H21.796V50.7959C21.796 48.2637 20.4495 46.9173 18.0179 46.9173C16.6714 46.9173 15.2446 47.3795 14.4407 48.0628L15.0637 49.1078C15.8876 48.5049 16.9126 48.1432 17.9375 48.1432C19.3643 48.1432 20.4294 48.8063 20.4294 50.7557V51.037H19.8265C17.8973 51.037 13.677 51.238 13.677 54.5539ZM15.0637 54.4333C15.0637 52.1825 18.2791 52.1223 19.8466 52.1223H20.4294V52.5845C20.4294 54.353 19.2839 56.3626 17.3346 56.3626C15.8274 56.3626 15.0637 55.3779 15.0637 54.4333Z" fill="white"/>
<path d="M24.9431 61.2862H26.3097V56.3827C26.3097 55.8602 26.2494 55.4985 26.2494 55.4985H26.2896C26.9528 56.7645 28.1987 57.5081 29.6256 57.5081C32.2582 57.5081 34.1473 55.4181 34.1473 52.2026C34.1473 49.0877 32.4793 46.9173 29.7462 46.9173C28.1786 46.9173 26.8523 47.701 26.2293 49.0073H26.1891C26.1891 49.0073 26.2494 48.6657 26.2494 48.2236V47.1584H24.9431V61.2862ZM26.2695 52.2428C26.2695 49.369 27.8571 48.1633 29.5452 48.1633C31.4343 48.1633 32.7606 49.7509 32.7606 52.2227C32.7606 54.7951 31.2735 56.2822 29.4849 56.2822C27.415 56.2822 26.2695 54.2726 26.2695 52.2428Z" fill="white"/>
<path d="M35.7594 59.7991L35.2369 60.8843C35.2369 60.8843 35.9804 61.4872 37.0255 61.4872C38.3719 61.4872 39.3968 60.6632 39.9193 59.3771L44.9033 47.1584H43.4362L40.5222 54.5338C40.3213 55.0362 40.1806 55.5989 40.1806 55.5989H40.1404C40.1404 55.5989 39.9595 55.0362 39.7586 54.5338L36.8044 47.1584H35.2972L39.4973 57.1665L38.8944 58.6134C38.4925 59.5378 37.8494 60.2613 36.9652 60.2613C36.3221 60.2613 35.7594 59.7991 35.7594 59.7991Z" fill="white"/>
<path d="M45.8351 57.2669H47.4227L50.397 52.7051H52.0047V57.2669H53.331V52.7051H54.9588L57.913 57.2669H59.5207L56.1043 52.1022V52.062L59.1992 47.1584H57.692L54.9588 51.4993H53.331V47.1584H52.0047V51.4993H50.3769L47.6437 47.1584H46.1566L49.2515 52.062V52.1022L45.8351 57.2669Z" fill="white"/>
<path d="M61.5445 57.2669H62.911V52.685H68.8194V57.2669H70.186V47.1584H68.8194V51.4792H62.911V47.1584H61.5445V57.2669Z" fill="white"/>
<path d="M72.5533 54.5539C72.5533 56.5033 74.2614 57.5081 75.9696 57.5081C77.5975 57.5081 78.8635 56.4631 79.386 55.2372H79.4262C79.4262 55.2372 79.3659 55.5788 79.3659 56.0812V57.2669H80.6722V50.7959C80.6722 48.2637 79.3257 46.9173 76.8941 46.9173C75.5476 46.9173 74.1208 47.3795 73.3169 48.0628L73.9399 49.1078C74.7639 48.5049 75.7888 48.1432 76.8137 48.1432C78.2405 48.1432 79.3056 48.8063 79.3056 50.7557V51.037H78.7028C76.7735 51.037 72.5533 51.238 72.5533 54.5539ZM73.9399 54.4333C73.9399 52.1825 77.1553 52.1223 78.7228 52.1223H79.3056V52.5845C79.3056 54.353 78.1601 56.3626 76.2108 56.3626C74.7036 56.3626 73.9399 55.3779 73.9399 54.4333Z" fill="white"/>
<path d="M82.7944 57.2669H84.382L87.0348 53.3883H89.1248V57.2669H90.4913V47.1584H86.9343C84.8442 47.1584 83.3571 48.2035 83.3571 50.2332C83.3571 51.8811 84.5026 52.906 85.6883 53.1472V53.1874C85.6883 53.1874 85.427 53.4687 85.2261 53.7903L82.7944 57.2669ZM87.095 52.3232C85.7888 52.3232 84.7639 51.5997 84.7639 50.2332C84.7639 48.7863 85.6883 48.2035 87.1955 48.2035H89.1248V52.3232H87.095Z" fill="white"/>
<path d="M98.7935 61.2862H100.16V56.3827C100.16 55.8602 100.1 55.4985 100.1 55.4985H100.14C100.803 56.7645 102.049 57.5081 103.476 57.5081C106.109 57.5081 107.998 55.4181 107.998 52.2026C107.998 49.0877 106.33 46.9173 103.597 46.9173C102.029 46.9173 100.703 47.701 100.08 49.0073H100.039C100.039 49.0073 100.1 48.6657 100.1 48.2236V47.1584H98.7935V61.2862ZM100.12 52.2428C100.12 49.369 101.707 48.1633 103.396 48.1633C105.285 48.1633 106.611 49.7509 106.611 52.2227C106.611 54.7951 105.124 56.2822 103.335 56.2822C101.265 56.2822 100.12 54.2726 100.12 52.2428Z" fill="white"/>
<path d="M109.944 52.2227C109.944 55.3377 112.235 57.5081 115.25 57.5081C116.576 57.5081 118.043 56.9655 118.988 56.1013L118.365 55.0563C117.541 55.7999 116.395 56.2621 115.29 56.2621C113.2 56.2621 111.431 54.8353 111.371 52.2629H119.128C119.148 52.0419 119.169 51.8007 119.169 51.5797C119.169 49.0676 117.742 46.9173 114.948 46.9173C112.215 46.9173 109.944 48.9068 109.944 52.2227ZM111.431 51.1777C111.753 49.148 113.22 48.0427 114.908 48.0427C116.415 48.0427 117.702 49.0676 117.782 51.1777H111.431Z" fill="white"/>
<path d="M121.736 57.2669H123.102V52.6448H124.73L128.086 57.2669H129.754L125.835 52.0017V51.9615L129.352 47.1584H127.744L124.71 51.439H123.102V47.1584H121.736V57.2669Z" fill="white"/>
<path d="M130.46 57.3473C133.052 57.1464 134.198 54.996 134.198 50.2131V48.3441H137.695V57.2669H139.061V47.1584H132.871V50.2131C132.871 53.951 132.148 55.8602 130.46 56.1214V57.3473Z" fill="white"/>
<path d="M141.458 54.5539C141.458 56.5033 143.166 57.5081 144.874 57.5081C146.502 57.5081 147.768 56.4631 148.291 55.2372H148.331C148.331 55.2372 148.271 55.5788 148.271 56.0812V57.2669H149.577V50.7959C149.577 48.2637 148.231 46.9173 145.799 46.9173C144.452 46.9173 143.026 47.3795 142.222 48.0628L142.845 49.1078C143.669 48.5049 144.694 48.1432 145.718 48.1432C147.145 48.1432 148.21 48.8063 148.21 50.7557V51.037H147.608C145.678 51.037 141.458 51.238 141.458 54.5539ZM142.845 54.4333C142.845 52.1825 146.06 52.1223 147.628 52.1223H148.21V52.5845C148.21 54.353 147.065 56.3626 145.116 56.3626C143.608 56.3626 142.845 55.3779 142.845 54.4333Z" fill="white"/>
<path d="M152.342 57.2669H153.669L154.171 50.7356C154.211 50.193 154.171 48.9872 154.171 48.9872H154.211C154.211 48.9872 154.493 49.7107 154.874 50.4944L157.668 56.1013H158.914L161.727 50.4543C162.149 49.6303 162.37 48.9872 162.37 48.9872H162.411C162.411 48.9872 162.39 50.193 162.411 50.7356L162.913 57.2669H164.259L163.415 47.1584H161.989L158.934 53.3883C158.632 54.0314 158.311 54.8152 158.311 54.8152H158.271C158.271 54.8152 157.929 54.0113 157.648 53.3883L154.613 47.1584H153.166L152.342 57.2669Z" fill="white"/>
<path d="M166.245 54.5539C166.245 56.5033 167.953 57.5081 169.661 57.5081C171.289 57.5081 172.555 56.4631 173.078 55.2372H173.118C173.118 55.2372 173.058 55.5788 173.058 56.0812V57.2669H174.364V50.7959C174.364 48.2637 173.017 46.9173 170.586 46.9173C169.239 46.9173 167.812 47.3795 167.009 48.0628L167.632 49.1078C168.456 48.5049 169.48 48.1432 170.505 48.1432C171.932 48.1432 172.997 48.8063 172.997 50.7557V51.037H172.394C170.465 51.037 166.245 51.238 166.245 54.5539ZM167.632 54.4333C167.632 52.1825 170.847 52.1223 172.415 52.1223H172.997V52.5845C172.997 54.353 171.852 56.3626 169.902 56.3626C168.395 56.3626 167.632 55.3779 167.632 54.4333Z" fill="white"/>
</svg>
