<svg width="20" height="17" viewBox="0 0 20 17" fill="none" xmlns="http://www.w3.org/2000/svg">
<path d="M0 13.3333C0 14.3058 0.386308 15.2384 1.07394 15.9261C1.76157 16.6137 2.69421 17 3.66667 17H16.3333C16.8148 17 17.2916 16.9052 17.7365 16.7209C18.1814 16.5366 18.5856 16.2665 18.9261 15.9261C19.2665 15.5856 19.5366 15.1814 19.7209 14.7365C19.9052 14.2916 20 13.8148 20 13.3333V3.66667C20 3.18515 19.9052 2.70835 19.7209 2.26349C19.5366 1.81863 19.2665 1.41442 18.9261 1.07394C18.5856 0.73346 18.1814 0.463376 17.7365 0.279109C17.2916 0.0948414 16.8148 0 16.3333 0H3.66667C2.69421 0 1.76157 0.386308 1.07394 1.07394C0.386308 1.76157 0 2.69421 0 3.66667V13.3333ZM16.3333 15H3.66667C3.22464 15 2.80072 14.8244 2.48816 14.5118C2.17559 14.1993 2 13.7754 2 13.3333V6.13333L7 9.70667C7.8753 10.3321 8.9242 10.6684 10 10.6684C11.0758 10.6684 12.1247 10.3321 13 9.70667L18 6.13333V13.3333C18 13.7754 17.8244 14.1993 17.5118 14.5118C17.1993 14.8244 16.7754 15 16.3333 15ZM3.66667 2H16.3333C16.7754 2 17.1993 2.17559 17.5118 2.48816C17.8244 2.80072 18 3.22464 18 3.66667L11.8367 8.07667C11.3014 8.45795 10.6605 8.66286 10.0033 8.66286C9.34613 8.66286 8.70529 8.45795 8.17 8.07667L2 3.66667C2 3.22464 2.17559 2.80072 2.48816 2.48816C2.80072 2.17559 3.22464 2 3.66667 2Z" fill="#0651BD"/>
</svg>
