<svg width="18" height="20" viewBox="0 0 18 20" fill="none" xmlns="http://www.w3.org/2000/svg">
<path d="M8.99972 9.65H9C9.90004 9.65 10.7804 9.38981 11.5297 8.90164C12.2791 8.41343 12.8641 7.71886 13.2099 6.90502C13.5557 6.09111 13.6462 5.19513 13.4699 4.33065C13.2935 3.46621 12.8584 2.67307 12.2205 2.05115C11.5827 1.4293 10.7709 1.00651 9.88799 0.835277C9.00511 0.664052 8.08993 0.751878 7.2579 1.0879C6.42582 1.42394 5.71362 1.99342 5.21206 2.72528C4.71045 3.45722 4.44231 4.31844 4.44231 5.2L4.44231 5.20029C4.44369 6.38209 4.92586 7.51377 5.78092 8.34745C6.63575 9.18091 7.79346 9.64866 8.99972 9.65ZM0.75 18.3997V18.4C0.75 18.6275 0.842753 18.8444 1.00572 19.0033C1.16847 19.1619 1.38788 19.25 1.61538 19.25H16.3846C16.6121 19.25 16.8315 19.1619 16.9943 19.0033C17.1572 18.8444 17.25 18.6275 17.25 18.4V18.3997C17.2475 16.2635 16.3759 14.2168 14.8287 12.7082C13.2816 11.1998 11.1855 10.3525 9.00028 10.35H8.99972C6.81454 10.3525 4.71835 11.1998 3.17132 12.7082C1.62407 14.2168 0.752524 16.2635 0.75 18.3997ZM9.00019 2.45C9.56062 2.45004 10.108 2.61212 10.573 2.91506C11.038 3.218 11.3994 3.64791 11.6126 4.1497C11.8258 4.65142 11.8814 5.20311 11.7728 5.7353C11.6643 6.26753 11.3961 6.7573 11.0012 7.14232C10.6062 7.52741 10.1023 7.79035 9.55268 7.89693C9.00308 8.00352 8.43347 7.94876 7.91613 7.73983C7.39885 7.53092 6.95773 7.17756 6.64785 6.72539C6.33809 6.27338 6.17314 5.74267 6.17308 5.20031C6.17397 4.47322 6.47055 3.77484 6.99989 3.25873C7.52942 2.74244 8.24866 2.45091 9.00019 2.45ZM15.4611 17.55H2.53894C2.74217 16.0778 3.46985 14.7173 4.60107 13.7099C5.80212 12.6403 7.37111 12.0464 9 12.0464C10.6289 12.0464 12.1979 12.6403 13.3989 13.7099C14.5301 14.7173 15.2578 16.0778 15.4611 17.55Z" fill="#0651BD" stroke="#174997" stroke-width="0.5"/>
</svg>
