<svg width="24" height="21" viewBox="0 0 24 21" fill="none" xmlns="http://www.w3.org/2000/svg">
<path d="M17.5196 20.0589L17.5196 20.0589C17.902 19.8897 18.1491 19.5124 18.1491 19.0952V16.5568H20.3933C21.9126 16.5568 23.15 15.3286 23.15 13.8167V7.27747C23.15 5.76551 21.9126 4.5374 20.3933 4.5374H19.6709V3.59008C19.6709 2.07817 18.4334 0.85 16.9142 0.85H3.60671C2.08738 0.85 0.85 2.07817 0.85 3.59008V10.1293C0.85 11.6412 2.08743 12.8694 3.60671 12.8694H4.32913V13.8167C4.32913 15.3286 5.56657 16.5567 7.08584 16.5567H12.6646L16.3793 19.8794L16.4793 19.7676L16.3793 19.8794C16.578 20.0572 16.8318 20.15 17.0886 20.15C17.2344 20.15 17.3812 20.1201 17.5196 20.0589ZM3.60671 10.7599C3.25548 10.7599 2.97114 10.476 2.97114 10.1293V3.59008C2.97114 3.24341 3.25546 2.95952 3.60671 2.95952H16.9142C17.2654 2.95952 17.5497 3.24341 17.5497 3.59008V4.5374H7.08579C5.56652 4.5374 4.32908 5.76556 4.32908 7.27747V10.7599H3.60671ZM21.0289 7.27747V13.8167C21.0289 14.1633 20.7445 14.4472 20.3933 14.4472H17.0885C16.5037 14.4472 16.0279 14.9186 16.0279 15.502V16.7279L13.7806 14.7178C13.7806 14.7178 13.7806 14.7178 13.7806 14.7178C13.5858 14.5435 13.3331 14.4473 13.0714 14.4473H7.08579C6.73454 14.4473 6.45022 14.1634 6.45022 13.8167V7.27747C6.45022 6.93081 6.73454 6.64692 7.08579 6.64692H20.3932C20.7445 6.64692 21.0289 6.93082 21.0289 7.27747Z" fill="#0651BD" stroke="#174997" stroke-width="0.3"/>
</svg>
