<svg width="585" height="340" viewBox="0 0 585 340" fill="none" xmlns="http://www.w3.org/2000/svg">
<rect width="585" height="340" fill="#E7F5FE"/>
<path opacity="0.3" d="M254.4 178V163.6H264.03V165.86H256.81V168.96H260.35C260.483 168.96 260.66 168.967 260.88 168.98C261.107 168.987 261.313 169 261.5 169.02C262.307 169.113 262.98 169.37 263.52 169.79C264.067 170.21 264.477 170.74 264.75 171.38C265.03 172.02 265.17 172.72 265.17 173.48C265.17 174.24 265.033 174.943 264.76 175.59C264.487 176.23 264.077 176.76 263.53 177.18C262.99 177.593 262.313 177.847 261.5 177.94C261.313 177.96 261.11 177.977 260.89 177.99C260.67 177.997 260.49 178 260.35 178H254.4ZM256.81 175.74H260.25C260.383 175.74 260.533 175.733 260.7 175.72C260.867 175.707 261.02 175.687 261.16 175.66C261.76 175.533 262.173 175.253 262.4 174.82C262.627 174.387 262.74 173.94 262.74 173.48C262.74 173.013 262.627 172.567 262.4 172.14C262.173 171.707 261.76 171.427 261.16 171.3C261.02 171.267 260.867 171.247 260.7 171.24C260.533 171.227 260.383 171.22 260.25 171.22H256.81V175.74ZM265.177 178L269.717 163.6H273.247L277.787 178H275.307L271.187 165.08H271.727L267.657 178H265.177ZM267.707 174.88V172.63H275.267V174.88H267.707ZM279.595 178V163.6H282.005V169.66H288.825V163.6H291.225V178H288.825V171.92H282.005V178H279.595ZM294.029 178V163.6H296.439V169.66H303.259V163.6H305.659V178H303.259V171.92H296.439V178H294.029ZM308.463 178V163.6H317.763V165.86H310.873V169.41H316.563V171.67H310.873V175.74H317.763V178H308.463ZM320.162 178V163.6H326.112C326.252 163.6 326.432 163.607 326.652 163.62C326.872 163.627 327.075 163.647 327.262 163.68C328.095 163.807 328.782 164.083 329.322 164.51C329.868 164.937 330.272 165.477 330.532 166.13C330.798 166.777 330.932 167.497 330.932 168.29C330.932 169.077 330.798 169.797 330.532 170.45C330.265 171.097 329.858 171.633 329.312 172.06C328.772 172.487 328.088 172.763 327.262 172.89C327.075 172.917 326.868 172.937 326.642 172.95C326.422 172.963 326.245 172.97 326.112 172.97H322.572V178H320.162ZM322.572 170.72H326.012C326.145 170.72 326.295 170.713 326.462 170.7C326.628 170.687 326.782 170.66 326.922 170.62C327.322 170.52 327.635 170.343 327.862 170.09C328.095 169.837 328.258 169.55 328.352 169.23C328.452 168.91 328.502 168.597 328.502 168.29C328.502 167.983 328.452 167.67 328.352 167.35C328.258 167.023 328.095 166.733 327.862 166.48C327.635 166.227 327.322 166.05 326.922 165.95C326.782 165.91 326.628 165.887 326.462 165.88C326.295 165.867 326.145 165.86 326.012 165.86H322.572V170.72Z" fill="#174997"/>
</svg>
